<svg xmlns="http://www.w3.org/2000/svg" width="250" height="60"><g fill-rule="nonzero" fill="none"><path d="M92.98 6.632c4.067 0 7.583 1.053 9.944 2.71.451.351.552.703.552 1.305v3.363c0 .502-.251.803-.653.803-.2 0-.452-.15-.653-.301-2.31-2.209-5.675-3.514-9.19-3.514-8.538 0-13.21 5.923-13.21 14.456 0 8.834 5.375 14.305 12.858 14.305 3.817 0 6.83-.954 9.642-3.263.252-.15.402-.25.603-.25.352 0 .603.3.603.702v2.66c0 .603-.15.804-.552 1.105-2.913 2.158-6.178 3.162-11.25 3.162-10.145 0-17.327-7.479-17.327-18.22 0-10.49 7.081-19.023 18.632-19.023Zm26.047 11.544c8.287 0 12.104 6.274 12.104 12.699 0 6.475-3.817 13-12.104 13-8.237 0-12.154-6.525-12.154-13 0-6.425 3.917-12.7 12.154-12.7Zm47.807-5.27c.402 0 .602.2.602.602v1.506c0 1.255-.15 2.86-.351 4.166 1.356-.1 3.967-.15 5.826-.15.2 0 .351.15.351.451v2.61c0 .251-.1.402-.351.402-1.758 0-4.068 0-5.826-.151.127 1.226.147 2.452.15 4.397v9.155c0 3.212 1.557 4.216 3.667 4.216.653 0 1.306-.1 1.757-.351.352-.15.603 0 .603.301v3.012c0 .25-.2.451-.452.502-.904.2-1.808.3-2.561.3-4.169 0-7.584-2.509-7.584-7.88v-8.08c0-2.66.1-4.167.251-5.572-.837.125-1.918.146-2.662.15h-.401c-.301 0-.502-.35-.502-.953 0-.552.05-.853.351-1.004 2.562-1.606 4.771-4.116 6.529-7.228.15-.301.302-.401.603-.401Zm36.895 5.27c6.88 0 9.19 3.212 9.19 7.479 0 3.011-.25 7.68-.25 10.44 0 3.513.702 5.42 1.456 5.973.2.2.251.351.251.602 0 .301-.301.552-.552.552h-2.21c-.754 0-1.105-.3-1.356-.903-.553-.954-.954-2.56-1.005-4.166-1.406 3.513-4.269 5.722-8.538 5.722-4.57 0-7.332-2.71-7.332-6.375 0-5.019 4.872-9.135 15.067-9.737v-1.657c0-2.76-1.256-4.467-5.073-4.467-2.11 0-3.566.603-4.47 1.707-.703.853-1.155 1.556-2.26 1.556-1.105 0-1.958-.653-1.958-1.907 0-1.707 2.51-4.819 9.04-4.819Zm22.312 0c2.913 0 5.123.853 6.328 1.857.653.552.854 1.004.854 1.707 0 1.254-.854 2.108-1.708 2.108-.603 0-.954-.1-1.406-.502-1.356-1.104-2.762-1.657-4.32-1.657-2.912 0-4.268 1.657-4.268 3.464 0 2.56 2.11 3.212 4.771 4.116 4.872 1.656 7.533 3.262 7.533 7.428 0 4.267-3.766 7.178-9.29 7.178-3.165 0-5.525-.904-7.082-2.008a1.06 1.06 0 0 1-.402-.853v-2.31c0-.4.1-.652.352-.652.301 0 .502.1.703.302 1.557 1.254 3.917 2.158 6.378 2.158 3.214 0 4.922-1.556 4.922-3.514 0-2.61-2.36-3.212-5.826-4.417-3.315-1.104-6.479-2.81-6.479-7.278 0-3.764 3.365-7.127 8.94-7.127Zm17.474-5.27c.402 0 .603.2.603.602v1.506c0 1.255-.15 2.86-.351 4.166 1.356-.1 3.967-.15 5.825-.15.201 0 .352.15.352.451v2.61c0 .251-.1.402-.352.402-1.757 0-4.068 0-5.825-.151.134 1.302.148 2.605.15 4.77v8.782c0 3.212 1.557 4.216 3.666 4.216.653 0 1.306-.1 1.758-.351.352-.15.603 0 .603.301v3.012c0 .25-.201.451-.452.502-.904.2-1.808.3-2.562.3-4.168 0-7.583-2.509-7.583-7.88v-8.08c0-2.66.1-4.167.251-5.572-.837.125-1.918.146-2.662.15h-.401c-.302 0-.503-.35-.503-.953 0-.552.05-.853.352-1.004 2.561-1.606 4.77-4.116 6.529-7.228.15-.301.301-.401.602-.401Zm-94.696 5.27c4.319 0 7.784 2.66 7.784 7.83v16.765c0 .2-.25.451-.452.451h-3.666c-.251 0-.452-.25-.452-.451V27.06c0-3.665-1.908-5.221-4.922-5.221-3.766 0-7.332 2.76-7.332 7.63v13.3c0 .201-.251.452-.452.452h-3.666c-.252 0-.453-.25-.453-.451V23.496c0-2.61-.351-3.664-.351-4.015 0-.2.2-.452.402-.452h3.164c.25 0 .402.251.452.452.15 1.054.301 3.112.301 4.718 1.356-3.513 5.022-6.023 9.643-6.023Zm40.377 0c3.164 0 4.52 1.606 4.52 3.413 0 1.456-.753 2.51-2.009 2.51-1.707 0-1.557-1.707-4.219-1.707-3.415 0-5.223 3.413-5.223 7.228v13.15c0 .201-.25.452-.452.452h-3.666c-.251 0-.452-.25-.452-.451V23.496c0-2.61-.351-3.664-.351-4.015 0-.2.2-.452.401-.452h3.165c.25 0 .401.251.451.452.201 1.305.302 3.162.302 4.97 1.205-3.665 3.867-6.275 7.533-6.275Zm-70.169 3.413c-5.123 0-7.232 4.166-7.232 9.386 0 5.27 2.16 9.587 7.232 9.587 5.123 0 7.232-4.367 7.232-9.587 0-5.32-2.16-9.386-7.232-9.386Zm89.423 8.633c-7.735.552-10.597 3.263-10.597 6.475 0 2.46 1.908 3.765 4.118 3.765 3.867 0 6.479-3.112 6.479-7.027v-3.213Z" fill="#0A004F"/><path d="M79.43 48.7c1.008 0 1.828.23 2.534.705.13.1.144.187.144.36v.978c0 .13-.072.201-.173.201a.254.254 0 0 1-.187-.086c-.691-.676-1.498-.993-2.419-.993-1.18 0-1.828.72-1.828 1.583 0 1.108 1.022 1.496 2.174 1.957 1.915.72 2.865 1.525 2.865 3.08 0 1.827-1.498 2.906-3.484 2.906-1.397 0-2.103-.273-2.995-.906a.42.42 0 0 1-.144-.331v-.792c0-.144.057-.23.144-.23.072 0 .13.043.187.1.835.677 1.742 1.037 2.75 1.037 1.296 0 2.088-.677 2.088-1.626 0-1.195-.922-1.497-2.462-2.13-1.368-.533-2.578-1.295-2.578-2.936 0-1.467 1.181-2.877 3.384-2.877Zm21.685 0c1.167 0 2.175.302 2.851.776.13.101.159.202.159.375v.964c0 .144-.072.23-.187.23-.058 0-.13-.043-.188-.086-.662-.634-1.627-1.008-2.635-1.008-2.447 0-3.786 1.698-3.786 4.145 0 2.532 1.54 4.1 3.686 4.1 1.094 0 1.958-.273 2.764-.935.072-.043.115-.072.173-.072.1 0 .173.087.173.202v.763c0 .172-.044.23-.159.316-.835.619-1.77.907-3.225.907-2.908 0-4.967-2.144-4.967-5.224 0-3.007 2.03-5.453 5.341-5.453Zm7.977.33c.057 0 .129.072.129.144v6.36c0 1.627 1.022 2.562 2.764 2.562 1.772 0 2.794-.82 2.794-2.49v-6.432c0-.072.057-.144.13-.144h1.166c.057 0 .13.072.13.144v6.62c0 2.187-1.7 3.583-4.22 3.583-2.519 0-4.232-1.41-4.232-3.627v-6.576c0-.072.057-.144.13-.144h1.209Zm-16.364 0c.072 0 .1.044.115.13l.1.892c0 .072-.028.115-.1.115-.864 0-2.304-.029-3.139-.029-.749 0-1.253-.014-1.742-.043.029.562.043 1.137.043 1.626 0 .533-.014 1.094-.043 1.655.446-.043.95-.057 1.67-.057.734 0 1.267-.015 1.612-.015.058 0 .101.043.101.13v.863c0 .072-.028.115-.1.115-.36 0-.907-.014-1.642-.014-.619 0-1.166-.029-1.641-.072.029.633.043 1.237.043 1.827 0 .648-.014 1.324-.043 1.972.553-.036 1.03-.042 1.769-.043h.535c.921 0 1.929-.03 2.793-.03.057 0 .1.044.1.13l-.115.892c-.014.072-.028.116-.1.116H86.68c-.072 0-.13-.072-.13-.13v-9.886c0-.072.058-.144.13-.144h6.048Zm30.977 0c2.361 0 3.413 1.267 3.413 2.835 0 1.569-1.412 2.691-2.895 2.806.735.158 1.8 1.194 2.837 2.375.806.892 1.382 1.554 1.684 1.712.072.029.087.1.087.201 0 .144-.072.23-.187.23h-1.325c-.187 0-.331-.086-.648-.517-1.281-1.483-2.793-3.655-3.815-3.655-.159 0-.562-.015-.821-.03.043.62.057 1.267.057 1.943v2.13c0 .058-.072.13-.13.13h-1.194c-.072 0-.13-.072-.13-.13v-9.842c0-.101.072-.188.13-.188h2.937Zm9.815 0c.057 0 .13.072.13.144v9.886c0 .058-.073.13-.13.13h-1.195c-.072 0-.13-.072-.13-.13v-9.886c0-.072.058-.144.13-.144h1.195Zm12.29 0c.072 0 .1.044.1.116v.978c0 .058-.028.1-.1.1-.533 0-1.166-.028-1.699-.028-.634 0-1.296-.014-1.93-.043.03.532.044 1.065.044 1.597v7.31c0 .058-.072.13-.13.13H140.9c-.072 0-.13-.072-.13-.13v-7.339c0-.532.015-1.064.044-1.568a35.2 35.2 0 0 1-1.743.043c-.662 0-1.252.029-1.914.029-.072 0-.116-.043-.101-.115l.13-.95c.014-.086.042-.13.1-.13h8.524Zm3.599 0c.13 0 .201.072.245.159l2.361 3.122c.33.475.633.936.864 1.454.288-.547.576-1.008.892-1.44l2.376-3.136a.326.326 0 0 1 .303-.159h1.21c.158 0 .158.116.071.23l-4.161 5.498v4.302c0 .058-.072.13-.13.13h-1.195c-.072 0-.13-.072-.13-.13v-4.302l-4.117-5.497c-.086-.115-.086-.23.072-.23h1.339Zm-27.36 1.05c.029.533.043 1.613.043 2.188 0 .59-.014 1.18-.043 1.756.26-.015.663-.044 1.066-.044 1.713 0 2.476-.79 2.476-2.072 0-1.093-.662-1.784-2.059-1.784-.518 0-.993-.014-1.483-.043Z" fill="#9DA5B3"/><path d="M17.052 25.013c0 7.343 2.824 13.862 7.467 18.254-.734.067-1.489.099-2.268.099C9.113 43.366 0 35.753 0 25.336 0 14.917 9.113 7.301 22.251 7.301c.522 0 1.03.011 1.521.03-4.216 4.416-6.72 10.71-6.72 17.681Z" fill="#004D45"/><path d="M55.88 10.796c.62 4.004-2.46 7.3-7.691 7.3-7.862 0-9.258-10.126-24.417-10.764C27.606 3.301 32.862.831 38.944.831c.12 0 .238 0 .357.002 8.746 0 15.897 5.592 16.578 9.963Z" fill="#0E9E53"/><path d="M51.331 32.777c2.028.395 4.627 1.78 4.627 5.995 0 5.851-9.104 10.218-16.674 10.291h-.071c-5.764-.009-10.849-2.182-14.694-5.796 13.34-1.13 19.589-11.904 26.812-10.49Z" fill="#0A004F"/></g></svg>